<mxfile host="app.diagrams.net" agent="Mozilla/5.0 (Windows NT 10.0; Win64; x64) AppleWebKit/537.36 (KHTML, like Gecko) Chrome/130.0.0.0 Safari/537.36" version="24.8.3">
  <diagram name="Page-1" id="GOccfhmQ8TeXtUk-7QE0">
    <mxGraphModel dx="882" dy="547" grid="1" gridSize="10" guides="1" tooltips="1" connect="1" arrows="1" fold="1" page="1" pageScale="1" pageWidth="1169" pageHeight="827" math="0" shadow="0">
      <root>
        <mxCell id="0" />
        <mxCell id="1" parent="0" />
        <mxCell id="JraNS6OQeRAOPN6oG29U-1" value="Pegawai" style="rounded=0;whiteSpace=wrap;html=1;" vertex="1" parent="1">
          <mxGeometry x="257" y="308" width="120" height="60" as="geometry" />
        </mxCell>
        <mxCell id="JraNS6OQeRAOPN6oG29U-84" style="rounded=0;orthogonalLoop=1;jettySize=auto;html=1;exitX=0.5;exitY=1;exitDx=0;exitDy=0;entryX=0.5;entryY=0;entryDx=0;entryDy=0;" edge="1" parent="1" source="JraNS6OQeRAOPN6oG29U-3" target="JraNS6OQeRAOPN6oG29U-1">
          <mxGeometry relative="1" as="geometry" />
        </mxCell>
        <mxCell id="JraNS6OQeRAOPN6oG29U-3" value="NIP" style="ellipse;whiteSpace=wrap;html=1;align=center;fontStyle=4;" vertex="1" parent="1">
          <mxGeometry x="267" y="238" width="100" height="40" as="geometry" />
        </mxCell>
        <mxCell id="JraNS6OQeRAOPN6oG29U-82" style="rounded=0;orthogonalLoop=1;jettySize=auto;html=1;exitX=0.5;exitY=1;exitDx=0;exitDy=0;entryX=0;entryY=0;entryDx=0;entryDy=0;" edge="1" parent="1" source="JraNS6OQeRAOPN6oG29U-4" target="JraNS6OQeRAOPN6oG29U-1">
          <mxGeometry relative="1" as="geometry" />
        </mxCell>
        <mxCell id="JraNS6OQeRAOPN6oG29U-4" value="nama" style="ellipse;whiteSpace=wrap;html=1;align=center;" vertex="1" parent="1">
          <mxGeometry x="157" y="238" width="100" height="40" as="geometry" />
        </mxCell>
        <mxCell id="JraNS6OQeRAOPN6oG29U-80" style="rounded=0;orthogonalLoop=1;jettySize=auto;html=1;exitX=0.5;exitY=1;exitDx=0;exitDy=0;entryX=0.25;entryY=0;entryDx=0;entryDy=0;" edge="1" parent="1" source="JraNS6OQeRAOPN6oG29U-5" target="JraNS6OQeRAOPN6oG29U-1">
          <mxGeometry relative="1" as="geometry" />
        </mxCell>
        <mxCell id="JraNS6OQeRAOPN6oG29U-5" value="jabatan" style="ellipse;whiteSpace=wrap;html=1;align=center;" vertex="1" parent="1">
          <mxGeometry x="207" y="198" width="100" height="40" as="geometry" />
        </mxCell>
        <mxCell id="JraNS6OQeRAOPN6oG29U-81" style="rounded=0;orthogonalLoop=1;jettySize=auto;html=1;exitX=0.5;exitY=1;exitDx=0;exitDy=0;entryX=0.75;entryY=0;entryDx=0;entryDy=0;" edge="1" parent="1" source="JraNS6OQeRAOPN6oG29U-6" target="JraNS6OQeRAOPN6oG29U-1">
          <mxGeometry relative="1" as="geometry" />
        </mxCell>
        <mxCell id="JraNS6OQeRAOPN6oG29U-6" value="pangkat" style="ellipse;whiteSpace=wrap;html=1;align=center;" vertex="1" parent="1">
          <mxGeometry x="337" y="198" width="100" height="40" as="geometry" />
        </mxCell>
        <mxCell id="JraNS6OQeRAOPN6oG29U-7" value="Satuan" style="rounded=0;whiteSpace=wrap;html=1;" vertex="1" parent="1">
          <mxGeometry x="257" y="489" width="120" height="60" as="geometry" />
        </mxCell>
        <mxCell id="JraNS6OQeRAOPN6oG29U-8" value="Admin" style="rounded=0;whiteSpace=wrap;html=1;" vertex="1" parent="1">
          <mxGeometry x="552" y="489" width="120" height="60" as="geometry" />
        </mxCell>
        <mxCell id="JraNS6OQeRAOPN6oG29U-44" style="rounded=0;orthogonalLoop=1;jettySize=auto;html=1;exitX=0.5;exitY=0;exitDx=0;exitDy=0;entryX=0.25;entryY=1;entryDx=0;entryDy=0;" edge="1" parent="1" source="JraNS6OQeRAOPN6oG29U-9" target="JraNS6OQeRAOPN6oG29U-7">
          <mxGeometry relative="1" as="geometry" />
        </mxCell>
        <mxCell id="JraNS6OQeRAOPN6oG29U-9" value="&lt;u&gt;ID&lt;/u&gt;" style="ellipse;whiteSpace=wrap;html=1;align=center;" vertex="1" parent="1">
          <mxGeometry x="213" y="589" width="100" height="40" as="geometry" />
        </mxCell>
        <mxCell id="JraNS6OQeRAOPN6oG29U-45" style="rounded=0;orthogonalLoop=1;jettySize=auto;html=1;exitX=0.5;exitY=0;exitDx=0;exitDy=0;entryX=0.75;entryY=1;entryDx=0;entryDy=0;" edge="1" parent="1" source="JraNS6OQeRAOPN6oG29U-10" target="JraNS6OQeRAOPN6oG29U-7">
          <mxGeometry relative="1" as="geometry" />
        </mxCell>
        <mxCell id="JraNS6OQeRAOPN6oG29U-10" value="nama satuan" style="ellipse;whiteSpace=wrap;html=1;align=center;" vertex="1" parent="1">
          <mxGeometry x="321" y="589" width="100" height="40" as="geometry" />
        </mxCell>
        <mxCell id="JraNS6OQeRAOPN6oG29U-34" style="rounded=0;orthogonalLoop=1;jettySize=auto;html=1;exitX=0.5;exitY=0;exitDx=0;exitDy=0;entryX=0.5;entryY=1;entryDx=0;entryDy=0;" edge="1" parent="1" source="JraNS6OQeRAOPN6oG29U-11" target="JraNS6OQeRAOPN6oG29U-8">
          <mxGeometry relative="1" as="geometry" />
        </mxCell>
        <mxCell id="JraNS6OQeRAOPN6oG29U-11" value="username" style="ellipse;whiteSpace=wrap;html=1;align=center;" vertex="1" parent="1">
          <mxGeometry x="562" y="589" width="100" height="40" as="geometry" />
        </mxCell>
        <mxCell id="JraNS6OQeRAOPN6oG29U-41" style="rounded=0;orthogonalLoop=1;jettySize=auto;html=1;exitX=0.5;exitY=0;exitDx=0;exitDy=0;entryX=0.25;entryY=1;entryDx=0;entryDy=0;" edge="1" parent="1" source="JraNS6OQeRAOPN6oG29U-12" target="JraNS6OQeRAOPN6oG29U-8">
          <mxGeometry relative="1" as="geometry" />
        </mxCell>
        <mxCell id="JraNS6OQeRAOPN6oG29U-12" value="password" style="ellipse;whiteSpace=wrap;html=1;align=center;" vertex="1" parent="1">
          <mxGeometry x="457" y="589" width="100" height="40" as="geometry" />
        </mxCell>
        <mxCell id="JraNS6OQeRAOPN6oG29U-43" style="rounded=0;orthogonalLoop=1;jettySize=auto;html=1;exitX=0.5;exitY=0;exitDx=0;exitDy=0;entryX=0.75;entryY=1;entryDx=0;entryDy=0;" edge="1" parent="1" source="JraNS6OQeRAOPN6oG29U-13" target="JraNS6OQeRAOPN6oG29U-8">
          <mxGeometry relative="1" as="geometry" />
        </mxCell>
        <mxCell id="JraNS6OQeRAOPN6oG29U-13" value="&lt;u&gt;satuan&lt;/u&gt;" style="ellipse;whiteSpace=wrap;html=1;align=center;" vertex="1" parent="1">
          <mxGeometry x="667" y="589" width="100" height="40" as="geometry" />
        </mxCell>
        <mxCell id="JraNS6OQeRAOPN6oG29U-14" value="Master" style="rounded=0;whiteSpace=wrap;html=1;" vertex="1" parent="1">
          <mxGeometry x="837" y="489" width="120" height="60" as="geometry" />
        </mxCell>
        <mxCell id="JraNS6OQeRAOPN6oG29U-56" style="rounded=0;orthogonalLoop=1;jettySize=auto;html=1;exitX=0.5;exitY=0;exitDx=0;exitDy=0;entryX=0.25;entryY=1;entryDx=0;entryDy=0;" edge="1" parent="1" source="JraNS6OQeRAOPN6oG29U-15" target="JraNS6OQeRAOPN6oG29U-14">
          <mxGeometry relative="1" as="geometry" />
        </mxCell>
        <mxCell id="JraNS6OQeRAOPN6oG29U-15" value="username" style="ellipse;whiteSpace=wrap;html=1;align=center;" vertex="1" parent="1">
          <mxGeometry x="799" y="589" width="100" height="40" as="geometry" />
        </mxCell>
        <mxCell id="JraNS6OQeRAOPN6oG29U-57" style="rounded=0;orthogonalLoop=1;jettySize=auto;html=1;exitX=0.5;exitY=0;exitDx=0;exitDy=0;entryX=0.75;entryY=1;entryDx=0;entryDy=0;" edge="1" parent="1" source="JraNS6OQeRAOPN6oG29U-16" target="JraNS6OQeRAOPN6oG29U-14">
          <mxGeometry relative="1" as="geometry" />
        </mxCell>
        <mxCell id="JraNS6OQeRAOPN6oG29U-16" value="password" style="ellipse;whiteSpace=wrap;html=1;align=center;" vertex="1" parent="1">
          <mxGeometry x="905" y="589" width="100" height="40" as="geometry" />
        </mxCell>
        <mxCell id="JraNS6OQeRAOPN6oG29U-17" value="Kehadiran Pegawai" style="rounded=0;whiteSpace=wrap;html=1;" vertex="1" parent="1">
          <mxGeometry x="552" y="308" width="120" height="60" as="geometry" />
        </mxCell>
        <mxCell id="JraNS6OQeRAOPN6oG29U-37" style="rounded=0;orthogonalLoop=1;jettySize=auto;html=1;exitX=0.5;exitY=1;exitDx=0;exitDy=0;entryX=0.25;entryY=0;entryDx=0;entryDy=0;" edge="1" parent="1" source="JraNS6OQeRAOPN6oG29U-18" target="JraNS6OQeRAOPN6oG29U-17">
          <mxGeometry relative="1" as="geometry" />
        </mxCell>
        <mxCell id="JraNS6OQeRAOPN6oG29U-18" value="data pegawai" style="ellipse;whiteSpace=wrap;html=1;align=center;" vertex="1" parent="1">
          <mxGeometry x="482" y="198" width="100" height="40" as="geometry" />
        </mxCell>
        <mxCell id="JraNS6OQeRAOPN6oG29U-38" style="rounded=0;orthogonalLoop=1;jettySize=auto;html=1;exitX=0.5;exitY=1;exitDx=0;exitDy=0;entryX=0.75;entryY=0;entryDx=0;entryDy=0;" edge="1" parent="1" source="JraNS6OQeRAOPN6oG29U-19" target="JraNS6OQeRAOPN6oG29U-17">
          <mxGeometry relative="1" as="geometry" />
        </mxCell>
        <mxCell id="JraNS6OQeRAOPN6oG29U-19" value="tanggal" style="ellipse;whiteSpace=wrap;html=1;align=center;" vertex="1" parent="1">
          <mxGeometry x="642" y="198" width="100" height="40" as="geometry" />
        </mxCell>
        <mxCell id="JraNS6OQeRAOPN6oG29U-39" style="rounded=0;orthogonalLoop=1;jettySize=auto;html=1;exitX=0.5;exitY=1;exitDx=0;exitDy=0;entryX=0.5;entryY=0;entryDx=0;entryDy=0;" edge="1" parent="1" source="JraNS6OQeRAOPN6oG29U-20" target="JraNS6OQeRAOPN6oG29U-17">
          <mxGeometry relative="1" as="geometry" />
        </mxCell>
        <mxCell id="JraNS6OQeRAOPN6oG29U-20" value="&lt;u&gt;status&lt;/u&gt;" style="ellipse;whiteSpace=wrap;html=1;align=center;" vertex="1" parent="1">
          <mxGeometry x="562" y="238" width="100" height="40" as="geometry" />
        </mxCell>
        <mxCell id="JraNS6OQeRAOPN6oG29U-21" value="Cuti pegawai" style="rounded=0;whiteSpace=wrap;html=1;" vertex="1" parent="1">
          <mxGeometry x="837" y="308" width="120" height="60" as="geometry" />
        </mxCell>
        <mxCell id="JraNS6OQeRAOPN6oG29U-90" style="rounded=0;orthogonalLoop=1;jettySize=auto;html=1;exitX=0.5;exitY=1;exitDx=0;exitDy=0;entryX=0.25;entryY=0;entryDx=0;entryDy=0;" edge="1" parent="1" source="JraNS6OQeRAOPN6oG29U-23" target="JraNS6OQeRAOPN6oG29U-21">
          <mxGeometry relative="1" as="geometry" />
        </mxCell>
        <mxCell id="JraNS6OQeRAOPN6oG29U-23" value="data pegawai" style="ellipse;whiteSpace=wrap;html=1;align=center;" vertex="1" parent="1">
          <mxGeometry x="787" y="238" width="100" height="40" as="geometry" />
        </mxCell>
        <mxCell id="JraNS6OQeRAOPN6oG29U-89" style="rounded=0;orthogonalLoop=1;jettySize=auto;html=1;exitX=0.5;exitY=1;exitDx=0;exitDy=0;entryX=0.5;entryY=0;entryDx=0;entryDy=0;" edge="1" parent="1" source="JraNS6OQeRAOPN6oG29U-24" target="JraNS6OQeRAOPN6oG29U-21">
          <mxGeometry relative="1" as="geometry" />
        </mxCell>
        <mxCell id="JraNS6OQeRAOPN6oG29U-24" value="tanggal" style="ellipse;whiteSpace=wrap;html=1;align=center;" vertex="1" parent="1">
          <mxGeometry x="847" y="198" width="100" height="40" as="geometry" />
        </mxCell>
        <mxCell id="JraNS6OQeRAOPN6oG29U-91" style="rounded=0;orthogonalLoop=1;jettySize=auto;html=1;exitX=0.5;exitY=1;exitDx=0;exitDy=0;entryX=0.75;entryY=0;entryDx=0;entryDy=0;" edge="1" parent="1" source="JraNS6OQeRAOPN6oG29U-26" target="JraNS6OQeRAOPN6oG29U-21">
          <mxGeometry relative="1" as="geometry" />
        </mxCell>
        <mxCell id="JraNS6OQeRAOPN6oG29U-26" value="&lt;u&gt;status&lt;/u&gt;" style="ellipse;whiteSpace=wrap;html=1;align=center;" vertex="1" parent="1">
          <mxGeometry x="912" y="238" width="100" height="40" as="geometry" />
        </mxCell>
        <mxCell id="JraNS6OQeRAOPN6oG29U-83" style="rounded=0;orthogonalLoop=1;jettySize=auto;html=1;exitX=0.5;exitY=1;exitDx=0;exitDy=0;entryX=1;entryY=0;entryDx=0;entryDy=0;" edge="1" parent="1" source="JraNS6OQeRAOPN6oG29U-58" target="JraNS6OQeRAOPN6oG29U-1">
          <mxGeometry relative="1" as="geometry" />
        </mxCell>
        <mxCell id="JraNS6OQeRAOPN6oG29U-58" value="satuan" style="ellipse;whiteSpace=wrap;html=1;align=center;" vertex="1" parent="1">
          <mxGeometry x="382" y="238" width="100" height="40" as="geometry" />
        </mxCell>
        <mxCell id="JraNS6OQeRAOPN6oG29U-76" value="" style="fontSize=12;html=1;endArrow=ERmandOne;startArrow=ERmandOne;rounded=0;exitX=1;exitY=0.5;exitDx=0;exitDy=0;entryX=0;entryY=0.5;entryDx=0;entryDy=0;" edge="1" parent="1" source="JraNS6OQeRAOPN6oG29U-7" target="JraNS6OQeRAOPN6oG29U-8">
          <mxGeometry width="100" height="100" relative="1" as="geometry">
            <mxPoint x="417" y="509" as="sourcePoint" />
            <mxPoint x="417" y="349" as="targetPoint" />
          </mxGeometry>
        </mxCell>
        <mxCell id="JraNS6OQeRAOPN6oG29U-64" value="bagian" style="shape=rhombus;html=1;dashed=0;whiteSpace=wrap;perimeter=rhombusPerimeter;" vertex="1" parent="1">
          <mxGeometry x="437" y="494" width="60" height="50" as="geometry" />
        </mxCell>
        <mxCell id="JraNS6OQeRAOPN6oG29U-77" value="" style="fontSize=12;html=1;endArrow=ERmandOne;startArrow=ERmandOne;rounded=0;exitX=1;exitY=0.5;exitDx=0;exitDy=0;entryX=0;entryY=0.5;entryDx=0;entryDy=0;" edge="1" parent="1" source="JraNS6OQeRAOPN6oG29U-17" target="JraNS6OQeRAOPN6oG29U-21">
          <mxGeometry width="100" height="100" relative="1" as="geometry">
            <mxPoint x="747" y="525" as="sourcePoint" />
            <mxPoint x="747" y="365" as="targetPoint" />
          </mxGeometry>
        </mxCell>
        <mxCell id="JraNS6OQeRAOPN6oG29U-68" value="cuti" style="shape=rhombus;html=1;dashed=0;whiteSpace=wrap;perimeter=rhombusPerimeter;" vertex="1" parent="1">
          <mxGeometry x="727" y="313" width="60" height="50" as="geometry" />
        </mxCell>
        <mxCell id="JraNS6OQeRAOPN6oG29U-78" value="" style="fontSize=12;html=1;endArrow=ERoneToMany;startArrow=ERmandOne;rounded=0;entryX=1;entryY=0.5;entryDx=0;entryDy=0;exitX=0;exitY=0.5;exitDx=0;exitDy=0;" edge="1" parent="1" source="JraNS6OQeRAOPN6oG29U-17" target="JraNS6OQeRAOPN6oG29U-1">
          <mxGeometry width="100" height="100" relative="1" as="geometry">
            <mxPoint x="617" y="468" as="sourcePoint" />
            <mxPoint x="717" y="368" as="targetPoint" />
          </mxGeometry>
        </mxCell>
        <mxCell id="JraNS6OQeRAOPN6oG29U-66" value="menambah" style="shape=rhombus;html=1;dashed=0;whiteSpace=wrap;perimeter=rhombusPerimeter;" vertex="1" parent="1">
          <mxGeometry x="437" y="313" width="60" height="50" as="geometry" />
        </mxCell>
        <mxCell id="JraNS6OQeRAOPN6oG29U-79" value="" style="fontSize=12;html=1;endArrow=ERmandOne;startArrow=ERmandOne;rounded=0;exitX=0.5;exitY=0;exitDx=0;exitDy=0;entryX=0.5;entryY=1;entryDx=0;entryDy=0;" edge="1" parent="1" source="JraNS6OQeRAOPN6oG29U-7" target="JraNS6OQeRAOPN6oG29U-1">
          <mxGeometry width="100" height="100" relative="1" as="geometry">
            <mxPoint x="317" y="489" as="sourcePoint" />
            <mxPoint x="317" y="368" as="targetPoint" />
          </mxGeometry>
        </mxCell>
        <mxCell id="JraNS6OQeRAOPN6oG29U-2" value="bagian" style="shape=rhombus;html=1;dashed=0;whiteSpace=wrap;perimeter=rhombusPerimeter;" vertex="1" parent="1">
          <mxGeometry x="287" y="405.5" width="60" height="50" as="geometry" />
        </mxCell>
        <mxCell id="JraNS6OQeRAOPN6oG29U-86" value="" style="fontSize=12;html=1;endArrow=ERoneToMany;startArrow=ERmandOne;rounded=0;entryX=0.75;entryY=1;entryDx=0;entryDy=0;exitX=0.25;exitY=1;exitDx=0;exitDy=0;edgeStyle=orthogonalEdgeStyle;" edge="1" parent="1" source="JraNS6OQeRAOPN6oG29U-21" target="JraNS6OQeRAOPN6oG29U-1">
          <mxGeometry width="100" height="100" relative="1" as="geometry">
            <mxPoint x="612" y="406" as="sourcePoint" />
            <mxPoint x="437" y="406" as="targetPoint" />
            <Array as="points">
              <mxPoint x="867" y="402" />
              <mxPoint x="347" y="402" />
            </Array>
          </mxGeometry>
        </mxCell>
        <mxCell id="JraNS6OQeRAOPN6oG29U-87" value="cuti" style="shape=rhombus;html=1;dashed=0;whiteSpace=wrap;perimeter=rhombusPerimeter;" vertex="1" parent="1">
          <mxGeometry x="582" y="376" width="60" height="50" as="geometry" />
        </mxCell>
      </root>
    </mxGraphModel>
  </diagram>
</mxfile>
